<svg width="190" height="80" viewBox="0 0 190 80" fill="none" xmlns="http://www.w3.org/2000/svg">
<g clip-path="url(#clip0_1975_2253)">
<path d="M28.9912 74.6313C27.6461 76.0919 26.0932 77.2753 24.321 78.1759C22.5487 79.0822 20.6725 79.6479 18.6867 79.8846C17.1626 80.0636 15.6733 80.0405 14.2185 79.8096C12.7637 79.5787 11.3725 79.1746 10.0563 78.5973C8.74007 78.02 7.51623 77.2811 6.37898 76.3863C5.24173 75.4915 4.24303 74.4697 3.37133 73.3209C2.49964 72.1721 1.78958 70.9194 1.22384 69.557C0.663872 68.1946 0.294411 66.7514 0.115453 65.2274C-0.0635051 63.7034 -0.0404138 62.2082 0.1905 60.7477C0.421413 59.2814 0.825512 57.8901 1.4028 56.5739C1.98008 55.2577 2.719 54.0339 3.61379 52.8966C4.50858 51.7594 5.53038 50.7607 6.67917 49.889C7.82796 49.023 9.08067 48.3072 10.4431 47.7415C11.8055 47.1815 13.2487 46.812 14.7727 46.6331C16.7585 46.4022 18.7155 46.5119 20.6494 46.9737C22.5776 47.4355 24.3671 48.2264 26.0124 49.3521L23.2645 55.3501C22.2023 54.4437 21.0016 53.7972 19.6507 53.4046C18.2999 53.0121 16.926 52.8966 15.5232 53.0583C14.1204 53.2199 12.8099 53.6471 11.6323 54.334C10.4546 55.0152 9.46168 55.8696 8.64194 56.8972C7.82219 57.9248 7.22182 59.0909 6.82926 60.4013C6.43671 61.7117 6.32703 63.0684 6.48867 64.4712C6.65031 65.874 7.0775 67.1613 7.75869 68.3274C8.43989 69.4935 9.30004 70.4864 10.3334 71.3062C11.3667 72.1259 12.5386 72.7263 13.8375 73.1189C15.1422 73.5114 16.4988 73.6211 17.9189 73.4537C19.339 73.2863 20.6321 72.8591 21.856 72.1606C23.074 71.4621 24.0958 70.5557 24.9156 69.43L28.9796 74.6313H28.9912Z" fill="#444444"/>
<path d="M50.5008 61.094C50.5008 62.8951 50.1775 64.5808 49.531 66.1337C48.8844 67.6923 48.0069 69.0374 46.8928 70.1689C45.7786 71.3061 44.474 72.2009 42.9788 72.8532C41.4836 73.5056 39.8788 73.8346 38.1643 73.8346C36.4497 73.8346 34.868 73.5056 33.3728 72.8532C31.8776 72.2009 30.5672 71.3061 29.4473 70.1689C28.3273 69.0316 27.4441 67.6865 26.7975 66.1337C26.151 64.575 25.8277 62.8951 25.8277 61.094C25.8277 59.2928 26.151 57.561 26.7975 55.9966C27.4441 54.4321 28.3273 53.087 29.4473 51.9498C30.5672 50.8125 31.8776 49.9235 33.3728 49.277C34.868 48.6304 36.467 48.3071 38.1643 48.3071C39.8615 48.3071 41.4836 48.6131 42.9788 49.2192C44.474 49.8254 45.7786 50.6913 46.8928 51.8112C48.0069 52.9312 48.8844 54.2762 49.531 55.8465C50.1775 57.4167 50.5008 59.1658 50.5008 61.0882V61.094ZM44.3008 61.094C44.3008 60.101 44.1391 59.2063 43.8159 58.3981C43.4926 57.5956 43.0538 56.9029 42.4939 56.3256C41.9397 55.7483 41.2874 55.3038 40.5427 54.9978C39.798 54.6919 39.0071 54.536 38.1643 54.536C37.3214 54.536 36.5305 54.6919 35.7858 54.9978C35.0411 55.3038 34.3946 55.7483 33.8462 56.3256C33.2978 56.9029 32.8648 57.5956 32.5473 58.3981C32.2298 59.2005 32.0739 60.101 32.0739 61.094C32.0739 62.0292 32.2298 62.8893 32.5473 63.686C32.8648 64.4826 33.292 65.1754 33.8462 65.7584C34.3946 66.3473 35.0411 66.8091 35.7858 67.1439C36.5305 67.4787 37.3214 67.6519 38.1643 67.6519C39.0071 67.6519 39.798 67.496 40.5427 67.1785C41.2874 66.861 41.9397 66.4223 42.4939 65.8508C43.0481 65.2793 43.4868 64.5865 43.8159 63.7783C44.1391 62.9644 44.3008 62.0696 44.3008 61.094Z" fill="#444444"/>
<path d="M72.6281 61.094C72.6281 62.8951 72.3048 64.5808 71.6582 66.1337C71.0117 67.6923 70.1342 69.0374 69.02 70.1689C67.9059 71.3061 66.6012 72.2009 65.1061 72.8532C63.6109 73.5056 62.006 73.8346 60.2915 73.8346C58.577 73.8346 56.9952 73.5056 55.5001 72.8532C54.0049 72.2009 52.6945 71.3061 51.5745 70.1689C50.4546 69.0316 49.5714 67.6865 48.9248 66.1337C48.2782 64.575 47.955 62.8951 47.955 61.094C47.955 59.2928 48.2782 57.561 48.9248 55.9966C49.5714 54.4321 50.4546 53.087 51.5745 51.9498C52.6945 50.8125 54.0049 49.9235 55.5001 49.277C56.9952 48.6304 58.5943 48.3071 60.2915 48.3071C61.9887 48.3071 63.6109 48.6131 65.1061 49.2192C66.6012 49.8254 67.9059 50.6913 69.02 51.8112C70.1342 52.9312 71.0117 54.2762 71.6582 55.8465C72.3048 57.4167 72.6281 59.1658 72.6281 61.0882V61.094ZM66.428 61.094C66.428 60.101 66.2664 59.2063 65.9431 58.3981C65.6198 57.5956 65.1811 56.9029 64.6211 56.3256C64.0669 55.7483 63.4146 55.3038 62.6699 54.9978C61.9252 54.6919 61.1343 54.536 60.2915 54.536C59.4487 54.536 58.6578 54.6919 57.9131 54.9978C57.1684 55.3038 56.5218 55.7483 55.9734 56.3256C55.425 56.9029 54.992 57.5956 54.6745 58.3981C54.357 59.2005 54.2012 60.101 54.2012 61.094C54.2012 62.0292 54.357 62.8893 54.6745 63.686C54.992 64.4826 55.4192 65.1754 55.9734 65.7584C56.5218 66.3473 57.1684 66.8091 57.9131 67.1439C58.6578 67.4787 59.4487 67.6519 60.2915 67.6519C61.1343 67.6519 61.9252 67.496 62.6699 67.1785C63.4146 66.861 64.0669 66.4223 64.6211 65.8508C65.1753 65.2793 65.6141 64.5865 65.9431 63.7783C66.2664 62.9644 66.428 62.0696 66.428 61.094Z" fill="#444444"/>
<path d="M80.0404 73.3846H73.8404V39.625H80.0404V60.9152L89.2192 49.2772H96.3025L88.2956 59.3335L96.3025 73.3846H89.2192L84.3239 64.6098L80.0404 70.2903V73.3788V73.3846Z" fill="#444444"/>
<path d="M103.224 42.6728C103.224 43.2444 103.114 43.7755 102.895 44.2719C102.676 44.7684 102.381 45.2014 102.006 45.5708C101.631 45.9403 101.192 46.2347 100.684 46.4483C100.182 46.6677 99.6449 46.7773 99.0734 46.7773C98.5019 46.7773 97.9651 46.6677 97.4628 46.4483C96.9606 46.2289 96.5218 45.9403 96.1524 45.5708C95.7829 45.2014 95.4885 44.7684 95.2749 44.2719C95.0555 43.7755 94.9459 43.2444 94.9459 42.6728C94.9459 42.1013 95.0555 41.5876 95.2749 41.0853C95.4943 40.5831 95.7829 40.1443 96.1524 39.7749C96.5218 39.4054 96.9548 39.111 97.4628 38.8974C97.9651 38.678 98.5019 38.5684 99.0734 38.5684C99.6449 38.5684 100.182 38.678 100.684 38.8974C101.186 39.1168 101.625 39.4112 102.006 39.7749C102.381 40.1443 102.681 40.5773 102.895 41.0853C103.114 41.5876 103.224 42.1187 103.224 42.6728ZM102.162 73.3844H95.9619V49.2308H102.162V73.3844Z" fill="#444444"/>
<path d="M110.238 73.3843H104.084V49.2307H105.574L107.606 51.5745C108.599 50.6739 109.724 49.9754 110.977 49.4905C112.23 48.9998 113.546 48.7573 114.914 48.7573C116.386 48.7573 117.777 49.0402 119.088 49.6002C120.398 50.1601 121.536 50.9395 122.517 51.9208C123.493 52.908 124.266 54.0568 124.826 55.373C125.392 56.6892 125.669 58.092 125.669 59.5814V73.3843H119.515V59.5814C119.515 58.9522 119.394 58.3518 119.157 57.786C118.915 57.2203 118.586 56.7296 118.164 56.3082C117.743 55.8868 117.252 55.5577 116.698 55.3153C116.144 55.0728 115.549 54.9574 114.914 54.9574C114.279 54.9574 113.661 55.0786 113.09 55.3153C112.518 55.5577 112.022 55.8868 111.601 56.3082C111.179 56.7296 110.85 57.2203 110.608 57.786C110.365 58.3518 110.25 58.9464 110.25 59.5814V73.3843H110.238Z" fill="#444444"/>
<path d="M133.422 44.8376C133.422 45.5014 133.358 46.2115 133.231 46.9677C133.104 47.7298 132.902 48.4802 132.625 49.2249C132.348 49.9696 131.984 50.6797 131.534 51.3551C131.084 52.0305 130.541 52.602 129.912 53.0696L127.476 51.3551C127.88 50.8759 128.192 50.4141 128.399 49.9812C128.607 49.5482 128.775 49.1095 128.896 48.6707C128.446 48.5957 128.024 48.4456 127.632 48.2204C127.239 47.9953 126.904 47.7124 126.627 47.3776C126.35 47.037 126.125 46.6502 125.963 46.2173C125.796 45.7843 125.715 45.3225 125.715 44.8433C125.715 44.3353 125.819 43.8446 126.021 43.377C126.223 42.9094 126.5 42.4996 126.858 42.1474C127.216 41.7953 127.614 41.5182 128.076 41.3104C128.532 41.1083 129.029 41.0044 129.554 41.0044C130.079 41.0044 130.605 41.1083 131.078 41.3104C131.551 41.5124 131.961 41.7895 132.308 42.1474C132.654 42.4996 132.925 42.9094 133.133 43.377C133.335 43.8446 133.439 44.3296 133.439 44.8433L133.422 44.8376Z" fill="#444444"/>
<path d="M161.051 60.4648C161.051 62.2544 160.71 63.9343 160.035 65.5045C159.359 67.0747 158.436 68.4429 157.264 69.609C156.092 70.7751 154.718 71.693 153.148 72.3742C151.577 73.0496 149.898 73.3902 148.108 73.3902C146.318 73.3902 144.638 73.0496 143.068 72.3742C141.498 71.6988 140.13 70.7751 138.964 69.609C137.798 68.4429 136.88 67.0747 136.199 65.5045C135.523 63.9343 135.183 62.2544 135.183 60.4648V41.0508H141.631V60.4648C141.631 61.3539 141.798 62.1851 142.139 62.9702C142.479 63.7496 142.941 64.4365 143.524 65.0196C144.107 65.6027 144.8 66.0703 145.585 66.4051C146.37 66.7399 147.213 66.9131 148.102 66.9131C148.991 66.9131 149.828 66.7457 150.619 66.4051C151.41 66.0645 152.097 65.6027 152.68 65.0196C153.263 64.4365 153.731 63.7496 154.066 62.9702C154.406 62.1909 154.574 61.3539 154.574 60.4648V41.0508H161.045V60.4648H161.051Z" fill="#444444"/>
<path d="M170.368 73.3844H163.897V41.0449H176.839C178.029 41.0449 179.172 41.2008 180.268 41.5068C181.365 41.8127 182.393 42.2514 183.345 42.8172C184.298 43.3829 185.17 44.0583 185.96 44.8492C186.751 45.6401 187.427 46.5118 187.992 47.4759C188.558 48.4399 188.991 49.4675 189.303 50.5643C189.609 51.6612 189.765 52.8042 189.765 53.9934C189.765 55.7657 189.424 57.4398 188.749 59.01C188.073 60.5802 187.15 61.9541 185.978 63.126C184.806 64.2979 183.432 65.2216 181.862 65.897C180.292 66.5724 178.617 66.913 176.845 66.913H170.374V73.3844H170.368ZM170.368 47.522V60.4648H176.839C177.728 60.4648 178.56 60.2973 179.345 59.9567C180.124 59.6161 180.811 59.1543 181.394 58.5713C181.977 57.9882 182.445 57.2955 182.78 56.5104C183.114 55.7253 183.288 54.8824 183.288 53.9934C183.288 53.1044 183.12 52.2673 182.78 51.4764C182.439 50.6856 181.977 49.9986 181.394 49.4155C180.811 48.8325 180.124 48.3649 179.345 48.0301C178.565 47.6895 177.728 47.522 176.839 47.522H170.368Z" fill="#444444"/>
<path d="M22.6988 25.5332C22.6988 25.5332 28.7545 28.1887 41.4432 14.7784C54.1319 1.3681 59.1716 6.62715 61.5269 9.88303C63.8822 13.1331 63.888 20.1702 59.7316 25.793C60.3146 19.8989 60.5571 14.9227 59.2005 13.8836C59.7258 16.3197 59.2004 23.8879 55.7425 25.5794C56.3429 19.6045 53.8721 16.1812 52.1229 15.3499C53.8721 18.5307 53.214 25.7757 53.214 25.7757C53.214 25.7757 41.0853 24.7712 30.6249 35.8031C42.4996 29.6204 53.8606 28.6159 60.0721 31.4504C60.6667 35.5895 61.5846 39.186 61.5846 39.186C61.5846 39.186 45.2648 35.0988 31.358 47.5681C45.363 40.4387 57.0183 41.5644 64.7943 43.0422C62.4275 30.2092 62.3409 29.8224 62.3409 29.8224C62.3409 29.8224 73.9212 10.8471 64.0208 3.16345C54.1146 -4.5202 46.0211 3.16345 39.619 11.967C33.2169 20.7706 26.7398 25.5332 22.6988 25.539V25.5332Z" fill="#FF734C"/>
<path d="M29.1702 18.9001C29.1702 18.9001 15.858 16.718 14.588 28.4022C13.3179 40.0865 25.5217 38.7298 25.5217 38.7298L27.5307 46.9561C27.5307 46.9561 37.6793 38.6375 45.6343 38.1641C45.6343 38.1641 39.0244 36.9172 28.9219 42.4014C27.2651 36.0512 27.04 35.3412 27.04 35.3412C27.04 35.3412 20.4705 37.7658 17.7342 31.2309C14.9978 24.6961 20.5224 18.6923 29.1759 18.9001H29.1702Z" fill="#FF734C"/>
</g>
<defs>
<clipPath id="clip0_1975_2253">
<rect width="189.759" height="80" fill="white"/>
</clipPath>
</defs>
</svg>
